<svg preserveAspectRatio="none" width="100%" height="100%" overflow="visible" style="display: block;" viewBox="0 0 56.0023 34.5119" fill="none" xmlns="http://www.w3.org/2000/svg">
<g id="Group 1261153584">
<path id="path2493 (Stroke)" d="M29.3057 34.4646C29.7577 34.4937 30.1481 34.1499 30.1773 33.6979L30.9691 21.3989C31.1177 19.7593 31.6318 18.1372 32.4548 16.7117L37.4029 8.14286C38.102 6.9318 37.2279 5.4176 35.8295 5.4176H20.1718C18.7732 5.4176 17.899 6.93177 18.5984 8.14286L23.5464 16.7117C24.3723 18.1419 24.8855 19.7708 25.0321 21.416L25.8228 33.6808C25.8521 34.1327 26.2424 34.4755 26.6944 34.4464C27.1464 34.4172 27.4891 34.0269 27.46 33.5748L26.6682 21.2895C26.6678 21.2831 26.6676 21.2766 26.667 21.2701C26.4993 19.3876 25.9126 17.5287 24.9672 15.8914L20.0191 7.32255C19.9513 7.20517 20.0362 7.05822 20.1718 7.05822H35.8295C35.9649 7.05822 36.0499 7.20513 35.9821 7.32255L31.0341 15.8914C30.0888 17.5287 29.5019 19.3876 29.3342 21.2701C29.3336 21.2766 29.3335 21.2831 29.3331 21.2895L28.5401 33.5931C28.5111 34.045 28.8537 34.4355 29.3057 34.4646Z" fill="var(--fill-0, #25425D)"/>
<path id="path2497 (Stroke)" d="M30.512 34.5119C32.0441 34.5119 33.308 33.3551 33.4435 31.8288L34.3436 21.7162C34.4464 20.5606 34.8091 19.4161 35.3895 18.411L41.7777 7.35274C42.4395 6.20724 43.5921 5.43925 44.8698 5.30424L45.1273 5.28601L45.1284 5.28487C45.1832 5.28272 45.2385 5.2826 45.2948 5.28259C48.2841 5.28259 50.7179 7.71646 50.7179 10.7058C50.7179 12.5614 49.7811 14.2035 48.3504 15.1833C47.9767 15.4392 47.8816 15.95 48.1374 16.3238C48.3933 16.6975 48.904 16.7938 49.2778 16.538C51.1346 15.2665 52.3585 13.1273 52.3586 10.7058C52.3586 6.81037 49.1902 3.64197 45.2948 3.64197C45.2186 3.64197 45.1415 3.64345 45.0635 3.64653V3.64766C43.091 3.72341 41.3289 4.84907 40.3569 6.53129L33.9687 17.5907C33.2693 18.8021 32.8339 20.1766 32.7098 21.5704L31.8097 31.683V31.6841C31.7492 32.3637 31.194 32.8713 30.512 32.8713H25.4705C24.7884 32.8713 24.2334 32.3638 24.1728 31.6841V31.683L23.8607 28.1773C23.8205 27.726 23.4221 27.392 22.9709 27.4322C22.5198 27.4724 22.1869 27.8709 22.2269 28.322L22.5391 31.8288C22.6745 33.355 23.9383 34.5119 25.4705 34.5119H30.512Z" fill="var(--fill-0, #25425D)"/>
<path id="path2501 (Stroke)" d="M22.8001 25.5037C23.2512 25.4633 23.5843 25.065 23.5441 24.6139L23.273 21.5708C23.149 20.1773 22.7133 18.8036 22.014 17.5923L15.668 6.57956C14.6921 4.88688 12.9175 3.75605 10.9341 3.68796C10.8582 3.68533 10.7825 3.68454 10.7074 3.68454C6.81224 3.68464 3.64355 6.85192 3.64355 10.7483C3.64361 13.1577 4.85646 15.2873 6.69808 16.5612C7.07061 16.8188 7.58193 16.7262 7.83968 16.3538C8.09738 15.9812 8.0038 15.4699 7.63119 15.2122C6.2119 14.2305 5.28423 12.5946 5.28418 10.7483C5.28418 7.7582 7.71814 5.32527 10.7074 5.32517C10.7645 5.32517 10.8211 5.3255 10.8771 5.32745H10.8783C12.2652 5.37522 13.5389 6.17094 14.2472 7.39987L20.5933 18.4114C21.1736 19.4165 21.5363 20.5611 21.6392 21.7166L21.9103 24.7597C21.9506 25.2109 22.3489 25.5439 22.8001 25.5037Z" fill="var(--fill-0, #25425D)"/>
<path id="path2505 (Stroke)" d="M4.81432 19.6823C5.19216 19.9323 5.7014 19.8289 5.95136 19.451C6.20102 19.0732 6.09666 18.565 5.71894 18.3151C2.62478 16.2681 0.852332 12.3803 1.98652 8.21161C2.79006 5.25784 5.08503 2.91684 8.02265 2.06952C10.6602 1.30905 13.1856 1.71731 15.2129 2.883C16.0921 3.38845 17.0896 3.66107 18.1091 3.66115H33.2473C33.7 3.66092 34.0674 3.29355 34.0676 2.84084C34.0676 2.38794 33.7001 2.02076 33.2473 2.02053H18.1091C17.3817 2.02044 16.6659 1.82613 16.031 1.46112C13.6276 0.0791358 10.6439 -0.394149 7.56806 0.492694C4.07644 1.49973 1.35579 4.27799 0.402859 7.78094C-0.927489 12.6709 1.16355 17.267 4.81432 19.6823Z" fill="var(--fill-0, #25425D)"/>
<path id="path2509 (Stroke)" d="M50.0687 19.3992C50.3194 19.7766 50.8295 19.8801 51.2069 19.6294C54.2006 17.6404 56.1434 14.1812 55.9943 10.288C55.7865 4.87072 51.099 0.197809 45.6812 0.00679613C43.584 -0.0671765 41.6094 0.466031 39.9253 1.4469C39.283 1.82109 38.5574 2.01998 37.821 2.01998H36.8298C36.3768 2.01998 36.0096 2.3874 36.0094 2.84029C36.0094 3.29334 36.3767 3.6606 36.8298 3.6606H37.821C38.8544 3.6606 39.8643 3.381 40.7513 2.86422C42.1753 2.03493 43.8445 1.5836 45.623 1.64628C50.1822 1.80702 54.18 5.79216 54.3548 10.3507C54.481 13.6451 52.8395 16.5741 50.2988 18.2622C49.9217 18.5127 49.8185 19.0219 50.0687 19.3992Z" fill="var(--fill-0, #25425D)"/>
<path id="path2513 (Stroke)" d="M40.1416 22.9418C41.3777 25.1924 44.1134 26.0949 46.4227 25.0906C46.8378 24.9098 47.0281 24.4269 46.8477 24.0116C46.667 23.5962 46.183 23.406 45.7676 23.5867C44.2285 24.2558 42.4036 23.6527 41.5794 22.1523C40.7056 20.5608 41.2869 18.5614 42.8783 17.6873L45.0806 16.4784C46.6722 15.6044 48.6716 16.1859 49.5456 17.7773C50.3288 19.2037 49.9421 20.9587 48.707 21.9358C48.3517 22.2168 48.2916 22.7334 48.5726 23.0888C48.8536 23.4439 49.3692 23.504 49.7245 23.2232C51.5774 21.7577 52.1586 19.1279 50.9834 16.9877C49.6733 14.6022 46.6769 13.7304 44.291 15.0406L42.0887 16.2494C39.7032 17.5596 38.8317 20.5561 40.1416 22.9418Z" fill="var(--fill-0, #25425D)"/>
<path id="path2517 (Stroke)" d="M9.18854 24.889C11.5743 26.199 14.5708 25.3276 15.8809 22.9419C17.191 20.5561 16.3184 17.5597 13.9327 16.2495L11.7304 15.0407C9.3447 13.7307 6.34925 14.6025 5.03913 16.9878C3.72912 19.3736 4.60061 22.37 6.98623 23.6802L9.18854 24.889ZM14.4431 22.1523C13.5691 23.7438 11.5696 24.3251 9.97809 23.4512L7.77578 22.2423C6.18439 21.3684 5.60303 19.3689 6.47695 17.7773C7.351 16.1862 9.34947 15.6047 10.9408 16.4785L13.1431 17.6873C14.7347 18.5614 15.317 20.5608 14.4431 22.1523Z" fill="var(--fill-0, #25425D)"/>
</g>
</svg>
