<svg preserveAspectRatio="none" width="100%" height="100%" overflow="visible" style="display: block;" viewBox="0 0 4.55501 5.70431" fill="none" xmlns="http://www.w3.org/2000/svg">
<path id="Vector (Stroke)" d="M2.91439 3.42681C2.91399 3.42593 2.90829 3.35337 2.84831 3.18641C2.79184 3.02923 2.70641 2.8405 2.60107 2.63156C2.50151 2.43408 2.38996 2.23095 2.27751 2.03683C2.16509 2.2309 2.05347 2.43414 1.95394 2.63156C1.84868 2.84034 1.7643 3.02931 1.70784 3.18641C1.64748 3.35444 1.64094 3.42683 1.64062 3.42681C1.64084 3.7784 1.9259 4.06356 2.27751 4.06369C2.62922 4.06369 2.91418 3.77847 2.91439 3.42681ZM4.55501 3.42681C4.5548 4.68456 3.53531 5.70431 2.27751 5.70431C1.0198 5.70419 0.000212229 4.68448 0 3.42681C0 3.14437 0.0825969 2.85832 0.164062 2.63156C0.251207 2.38907 0.366837 2.13516 0.48877 1.89328C0.73322 1.40842 1.02999 0.915931 1.25098 0.565965H1.25212C1.69873 -0.141097 2.692 -0.185803 3.20719 0.432665L3.30404 0.565965L3.67659 1.17892C3.80897 1.40621 3.94403 1.65087 4.06624 1.89328C4.18825 2.13529 4.30491 2.38894 4.39209 2.63156C4.47356 2.85832 4.55501 3.14437 4.55501 3.42681Z" fill="var(--fill-0, #25425D)"/>
</svg>
