<svg preserveAspectRatio="none" width="100%" height="100%" overflow="visible" style="display: block;" viewBox="0 0 5.40109 21.321" fill="none" xmlns="http://www.w3.org/2000/svg">
<path id="Vector (Stroke)" d="M0.371942 0.133629C0.751159 -0.114153 1.26 -0.00744708 1.50785 0.371747L1.07946 0.65202L1.50785 0.372886L1.50899 0.375165C1.50971 0.376286 1.51142 0.377058 1.5124 0.378583C1.51449 0.381818 1.51718 0.386082 1.52038 0.391116C1.52695 0.401447 1.53555 0.416562 1.54658 0.43441C1.56857 0.469993 1.59945 0.520305 1.63773 0.58594C1.71478 0.718093 1.82365 0.911754 1.9556 1.16813C2.21964 1.68119 2.57819 2.44693 2.97416 3.47868C3.76627 5.54267 4.70543 8.67093 5.32458 12.9795L5.37357 13.4022C5.4106 13.8261 5.41104 14.2562 5.37015 14.6862C5.17539 16.7345 4.40516 18.8272 3.64522 20.7964C3.48189 21.2186 3.00697 21.4288 2.58451 21.2658C2.16208 21.1026 1.95204 20.6276 2.11511 20.2051C2.88377 18.2132 3.56718 16.3225 3.7375 14.5313C3.77871 14.0982 3.76343 13.6549 3.6999 13.2131C3.09821 9.02592 2.19122 6.01644 1.44291 4.06657C1.06865 3.09139 0.73346 2.38011 0.496128 1.91895C0.377593 1.68864 0.283162 1.52071 0.220412 1.41309C0.189116 1.35941 0.165646 1.32072 0.150913 1.29688C0.143632 1.2851 0.138976 1.27633 0.136102 1.27181L0.132684 1.26839C-0.11399 0.889319 -0.00681236 0.381185 0.371942 0.133629Z" fill="var(--fill-0, #25425D)"/>
</svg>
